<svg id="convert_1" xmlns="http://www.w3.org/2000/svg" width="32" height="32" viewBox="0 0 32 32"><defs><style>.cls-1{fill:#3b82f6;}.cls-2{fill:#fff;}</style></defs><path class="cls-1" d="M19.5.4V4a12.55,12.55,0,0,1,8.63,9h-1a11.53,11.53,0,0,0-8.6-8.22V.21A17.21,17.21,0,0,0,16,0a17.21,17.21,0,0,0-2.5.21V4.78A11.53,11.53,0,0,0,4.9,13h-1A12.55,12.55,0,0,1,12.5,4V.4a16,16,0,0,0,0,31.2V28a12.55,12.55,0,0,1-8.63-9h1a11.53,11.53,0,0,0,8.6,8.22v4.57A17.21,17.21,0,0,0,16,32a17.21,17.21,0,0,0,2.5-.21V27.22A11.53,11.53,0,0,0,27.1,19h1a12.55,12.55,0,0,1-8.63,9v3.6A16,16,0,0,0,19.5.4Z"/><rect class="cls-2" x="14.5" y="7.04" width="1" height="2.08"/><rect class="cls-2" x="14.5" y="22.91" width="1" height="2.08"/><rect class="cls-2" x="16.5" y="7.04" width="1" height="2.08"/><rect class="cls-2" x="16.5" y="22.91" width="1" height="2.08"/><path class="cls-2" d="M14.5,4.61a10.28,10.28,0,0,1,3,0v-1a11.3,11.3,0,0,0-3,0Z"/><path class="cls-2" d="M17.5,27.39a10.28,10.28,0,0,1-3,0v1a11.3,11.3,0,0,0,3,0Z"/><path class="cls-2" d="M12.5.38V4a12.55,12.55,0,0,0-8.63,9h1a11.53,11.53,0,0,1,8.6-8.22V.19C13.16.25,12.83.3,12.5.38Z"/><path class="cls-2" d="M4.9,19h-1a12.55,12.55,0,0,0,8.63,9v3.62c.33.08.66.13,1,.19V27.22A11.53,11.53,0,0,1,4.9,19Z"/><path class="cls-2" d="M28.13,19h-1a11.53,11.53,0,0,1-8.6,8.22v4.59c.34-.06.67-.11,1-.19V28A12.55,12.55,0,0,0,28.13,19Z"/><path class="cls-2" d="M19.5,4V.38c-.33-.08-.66-.13-1-.19V4.78A11.53,11.53,0,0,1,27.1,13h1A12.55,12.55,0,0,0,19.5,4Z"/><path class="cls-2" d="M23.94,19a8.5,8.5,0,1,1,0-6H25a9.5,9.5,0,1,0,0,6Z"/><path class="cls-2" d="M21.76,19a6.5,6.5,0,1,1,0-6h1.11a7.5,7.5,0,1,0,0,6Z"/><rect class="cls-2" x="16.5" y="27.95" width="1" height="3.05"/><rect class="cls-2" x="14.5" y="27.95" width="1" height="3.05"/><rect class="cls-2" x="16.5" y="1" width="1" height="3.05"/><rect class="cls-2" x="14.5" y="1" width="1" height="3.05"/></svg>